<svg version="1.1"
	 xmlns="http://www.w3.org/2000/svg" xmlns:xlink="http://www.w3.org/1999/xlink" xmlns:a="http://ns.adobe.com/AdobeSVGViewerExtensions/3.0/"
	 x="0px" y="0px" width="26px" height="10px" viewBox="0 0 26 10" overflow="visible" enable-background="new 0 0 26 10"
	 xml:space="preserve">
<defs>
</defs>
<path fill="#FFFFFF" d="M8.973,0H7.636C7.427,0,7.259,0.168,7.259,0.378v8.376c0,0.209,0.167,0.377,0.376,0.377h1.337
	c0.209,0,0.377-0.168,0.377-0.377V0.378C9.35,0.168,9.182,0,8.973,0"/>
<path fill="#FFFFFF" d="M18.211,0h-1.338c-0.209,0-0.375,0.168-0.375,0.378v4.978l-3.819-5.188
	c-0.014-0.014-0.014-0.028-0.027-0.042c-0.015-0.014-0.015-0.014-0.028-0.028L12.61,0.084c0,0,0,0-0.015-0.014l-0.014-0.014h-0.014
	l-0.015-0.014H12.54c-0.014,0-0.014,0-0.028-0.014h-0.014c-0.014,0-0.014,0-0.028-0.014h-0.014c-0.014,0-0.014,0-0.028,0h-0.014
	h-0.014h-0.013h-0.015h-1.337c-0.209,0-0.376,0.167-0.376,0.377v8.376c0,0.21,0.167,0.377,0.376,0.377h1.337
	c0.209,0,0.376-0.167,0.376-0.377V3.775l3.832,5.188c0.027,0.043,0.056,0.07,0.098,0.099c0.014,0,0.014,0.014,0.027,0.014h0.015
	c0,0,0.014,0,0.014,0.014c0,0,0.014,0,0.014,0.015h0.015c0.014,0,0.014,0,0.027,0.014c0.028,0.014,0.056,0.014,0.097,0.014h1.338
	c0.21,0,0.377-0.168,0.377-0.377V0.378C18.587,0.168,18.421,0,18.211,0"/>
<path fill="#FFFFFF" d="M5.74,7.02H2.09V0.378C2.09,0.168,1.923,0,1.714,0H0.376C0.167,0,0,0.168,0,0.378V8.74
	c0,0.098,0.042,0.195,0.097,0.251c0.07,0.07,0.154,0.098,0.251,0.098h5.364c0.209,0,0.376-0.167,0.376-0.377V7.369
	C6.103,7.188,5.936,7.02,5.74,7.02"/>
<path fill="#FFFFFF" d="M25.623,2.098C25.833,2.098,26,1.93,26,1.72V0.378C26,0.168,25.833,0,25.623,0H20.26
	c-0.099,0-0.195,0.042-0.265,0.112c-0.07,0.07-0.099,0.154-0.099,0.252v8.362c0,0.098,0.042,0.196,0.099,0.252
	c0.069,0.069,0.152,0.098,0.25,0.098h5.364c0.21,0,0.377-0.168,0.377-0.378V7.355c0-0.21-0.167-0.378-0.377-0.378H21.96v-1.37h3.649
	c0.21,0,0.377-0.168,0.377-0.378V3.888c0-0.21-0.167-0.378-0.377-0.378H21.96V2.098H25.623z"/>
</svg>
